#!OML:ASF F:\VICON\USERDATA\INSTALL\rory3\rory3.ASF
:FULLY-SPECIFIED
:DEGREES
38
root 5.63269 16.1992 -34.3782 20.4095 -6.06031 -0.60762
lowerback -7.73259 -1.16903 -3.11506
upperback -5.27735 -1.38265 1.64422
thorax -1.01576 -0.598156 3.3546
lowerneck -16.1716 -2.61619 0.223792
upperneck 39.0125 -6.17089 4.35686
head 17.1171 -1.92756 0.736684
rclavicle 2.06736e-014 1.09332e-014
rhumerus -39.293 -8.12168 -74.0477
rradius 21.7983
rwrist -4.46527
rhand -4.75256 13.7906
rfingers 7.12502
rthumb 21.0311 -15.089
lclavicle 2.06736e-014 1.09332e-014
lhumerus -41.9883 13.4232 72.7461
lradius 37.1888
lwrist -0.930599
lhand 1.42852 16.2063
lfingers 7.12502
lthumb 26.9579 44.3032
rfemur -49.1899 6.37878 22.9159
rtibia 42.6183
rfoot -48.1865 -30.8391
rtoes 44.6338
lfemur -31.0116 -4.70057 -24.4357
ltibia 36.8055
lfoot -35.2615 27.0007
ltoes -17.6351
39
root 5.6625 16.2052 -34.4057 20.2111 -5.8465 -0.340103
lowerback -7.49952 -1.39649 -3.51502
upperback -4.9565 -1.66644 1.66058
thorax -0.77863 -0.740508 3.57702
lowerneck -16.8433 -2.57918 0.355261
upperneck 38.9358 -6.16532 4.33234
head 17.2414 -1.89705 0.691932
rclavicle 9.15652e-015 -1.3418e-014
rhumerus -38.6704 -8.83733 -73.8128
rradius 21.5258
rwrist -3.74526
rhand -5.87723 13.1216
rfingers 7.12502
rthumb 19.9504 -15.8743
lclavicle 9.15652e-015 -1.3418e-014
lhumerus -41.3943 13.6512 72.6576
lradius 36.9112
lwrist -0.847025
lhand 1.629 16.8626
lfingers 7.12502
lthumb 27.1497 44.9297
rfemur -48.994 7.30198 21.8999
rtibia 42.6503
rfoot -47.9905 -31.0208
rtoes 44.4559
lfemur -30.848 -4.98782 -24.6816
ltibia 36.6282
lfoot -34.9647 27.0886
ltoes -17.7468
40
root 5.70115 16.2237 -34.445 20.5933 -7.23112 -0.629278
lowerback -7.42035 -1.01582 -3.52816
upperback -5.34531 -1.16604 1.60459
thorax -1.27186 -0.473784 3.56738
lowerneck -16.2488 -2.55371 0.295007
upperneck 38.9253 -6.12075 4.40031
head 17.0874 -1.89404 0.749782
rclavicle 1.50082e-014 3.97569e-016
rhumerus -39.2009 -9.223 -73.4654
rradius 21.3503
rwrist -3.57687
rhand -6.41138 13.3363
rfingers 7.12502
rthumb 19.4369 -15.7122
lclavicle 1.50082e-014 3.97569e-016
lhumerus -42.1276 13.4415 72.246
lradius 37.0149
lwrist -0.703615
lhand 1.8062 17.3116
lfingers 7.12502
lthumb 27.3192 45.3522
rfemur -49.3137 8.53394 21.1733
rtibia 42.6948
rfoot -46.9575 -28.4069
rtoes 46.2893
lfemur -31.2199 -4.88935 -24.6981
ltibia 36.4744
lfoot -35.8153 27.5592
ltoes -16.0716
41
root 5.73632 16.2304 -34.4986 21.245 -8.27611 -0.78915
lowerback -8.04365 -0.84886 -3.57378
upperback -5.36915 -0.922057 1.52629
thorax -0.975387 -0.357699 3.52111
lowerneck -16.4478 -2.46877 0.326758
upperneck 39.0492 -6.03347 4.42374
head 17.2042 -1.84584 0.769626
rclavicle 4.47887e-015 -2.127e-014
rhumerus -38.9455 -9.69218 -73.357
rradius 21.553
rwrist -3.00872
rhand -5.84626 12.9066
rfingers 7.12502
rthumb 19.9801 -16.0862
lclavicle 4.47887e-015 -2.127e-014
lhumerus -42.039 13.687 71.7559
lradius 36.6988
lwrist -0.703276
lhand 1.71992 17.2266
lfingers 7.12502
lthumb 27.2367 45.2801
rfemur -50.3685 8.89887 20.7696
rtibia 42.6399
rfoot -42.0941 -30.828
rtoes 42.1159
lfemur -31.9712 -5.81185 -24.5532
ltibia 36.3625
lfoot -37.1593 28.237
ltoes -13.6155
42
root 5.76776 16.2306 -34.5461 21.7946 -9.03945 -0.932076
lowerback -7.26184 -0.62993 -3.85843
upperback -5.93372 -0.648313 1.61361
thorax -2.0187 -0.178806 3.80236
lowerneck -18.0281 -2.60998 0.739098
upperneck 40.4418 -6.23626 3.57703
head 18.3595 -1.91771 0.25659
rclavicle 2.39784e-014 2.25124e-014
rhumerus -39.4321 -10.5815 -72.4519
rradius 21.008
rwrist -2.36604
rhand -6.19035 14.618
rfingers 7.12502
rthumb 19.6494 -14.4089
lclavicle 2.39784e-014 2.25124e-014
lhumerus -42.3888 13.5825 71.6106
lradius 36.3756
lwrist -0.639985
lhand 1.63329 17.5683
lfingers 7.12502
lthumb 27.1538 45.6348
rfemur -51.0125 10.107 19.7818
rtibia 42.5784
rfoot -40.4448 -30.3261
rtoes 40.3938
lfemur -32.7265 -5.50451 -24.6063
ltibia 36.352
lfoot -37.5161 28.1242
ltoes -12.1914
43
root 5.79367 16.2352 -34.5802 21.9522 -9.39546 -0.956807
lowerback -7.86318 -0.72533 -3.88915
upperback -5.7256 -0.750568 1.61754
thorax -1.45955 -0.246026 3.81112
lowerneck -17.1041 -2.39105 0.441415
upperneck 39.5793 -5.8406 3.97077
head 17.6334 -1.79189 0.577291
rclavicle 1.0461e-014 -1.08835e-014
rhumerus -39.0891 -10.9741 -72.3975
rradius 20.9163
rwrist -1.69333
rhand -6.49474 14.0796
rfingers 7.12502
rthumb 19.3567 -14.977
lclavicle 1.0461e-014 -1.08835e-014
lhumerus -42.1705 14.0306 71.2271
lradius 36.1745
lwrist -0.556706
lhand 1.76616 18.4973
lfingers 7.12502
lthumb 27.2809 46.5439
rfemur -51.1881 11.407 18.6795
rtibia 42.4785
rfoot -38.2716 -31.4849
rtoes 36.1225
lfemur -33.0124 -5.89431 -24.5857
ltibia 36.3876
lfoot -38.0978 28.2798
ltoes -10.895
44
root 5.82314 16.2482 -34.6082 22.2153 -9.913 -1.3076
lowerback -7.95724 -0.627239 -3.63714
upperback -5.92503 -0.634591 1.68749
thorax -1.62716 -0.187414 3.74997
lowerneck -17.211 -2.29395 0.574712
upperneck 40.1284 -5.61255 3.54015
head 17.9394 -1.72911 0.403759
rclavicle -2.19906e-015 -2.12203e-014
rhumerus -39.4989 -10.8929 -72.3184
rradius 21.0151
rwrist -1.65147
rhand -6.91829 13.9834
rfingers 7.12502
rthumb 18.9494 -15.1136
lclavicle -2.19906e-015 -2.12203e-014
lhumerus -42.5326 13.9679 70.949
lradius 35.8179
lwrist -0.791975
lhand 1.28638 18.3147
lfingers 7.12502
lthumb 26.8219 46.4326
rfemur -51.2689 12.4815 18.0526
rtibia 42.3974
rfoot -35.4438 -33.0414
rtoes 29.2609
lfemur -33.3893 -6.09566 -24.2784
ltibia 36.5024
lfoot -39.1134 28.1147
ltoes -8.33181
45
root 5.86218 16.2519 -34.6422 22.8182 -10.9914 -1.64851
lowerback -8.27919 -0.247087 -3.39581
upperback -6.1863 -0.137032 1.54265
thorax -1.7674 0.0590403 3.49591
lowerneck -16.8939 -2.43351 0.527416
upperneck 40.0845 -5.83384 3.61026
head 17.8422 -1.82437 0.404509
rclavicle 1.23076e-014 -5.34234e-015
rhumerus -39.9105 -11.8142 -71.9525
rradius 20.9313
rwrist -1.22428
rhand -7.27161 13.9827
rfingers 7.12502
rthumb 18.6096 -15.1471
lclavicle 1.23076e-014 -5.34234e-015
lhumerus -42.6275 13.7317 70.5239
lradius 34.5385
lwrist -1.90142
lhand 0.00507115 16.0502
lfingers 7.12502
lthumb 25.5952 44.3502
rfemur -51.8189 12.8899 17.5797
rtibia 42.2703
rfoot -29.7929 -31.1516
rtoes 30.5079
lfemur -34.1542 -6.40426 -24.077
ltibia 36.6607
lfoot -40.7186 28.2215
ltoes -5.25373
46
root 5.90097 16.2496 -34.6839 23.7258 -12.3152 -2.23459
lowerback -9.05125 0.0880021 -3.06471
upperback -6.21467 0.306981 1.59769
thorax -1.40794 0.265506 3.40059
lowerneck -17.2617 -2.3481 0.484192
upperneck 40.0484 -5.64279 3.49274
head 17.9071 -1.76606 0.389273
rclavicle -2.0422e-014 -3.35449e-015
rhumerus -39.5034 -12.6261 -71.5978
rradius 20.6594
rwrist -0.644256
rhand -7.32 14.1496
rfingers 7.12502
rthumb 18.563 -14.9847
lclavicle -2.0422e-014 -3.35449e-015
lhumerus -42.3927 14.016 70.3622
lradius 34.1989
lwrist -2.09843
lhand -0.598732 16.7544
lfingers 7.12502
lthumb 25.0168 45.1363
rfemur -52.6589 12.6959 17.6755
rtibia 42.107
rfoot -25.6219 -29.5483
rtoes 24.5977
lfemur -35.2687 -6.36505 -23.7148
ltibia 36.9009
lfoot -42.2612 28.4032
ltoes -2.9274
47
root 5.93852 16.2433 -34.7186 24.1844 -12.7398 -2.54774
lowerback -9.42091 0.180344 -2.6724
upperback -6.12443 0.409792 1.59124
thorax -1.11396 0.298598 3.18349
lowerneck -17.7013 -2.30052 0.53907
upperneck 40.074 -5.56178 3.39181
head 18.0289 -1.73142 0.342163
rclavicle 2.58964e-014 7.06307e-015
rhumerus -39.0283 -13.6904 -71.2618
rradius 20.2341
rwrist -0.0156497
rhand -7.31426 14.2874
rfingers 7.12502
rthumb 18.5686 -14.8464
lclavicle 2.58964e-014 7.06307e-015
lhumerus -42.0703 14.0963 70.1903
lradius 33.9633
lwrist -1.99474
lhand -0.785566 17.1358
lfingers 7.12502
lthumb 24.8377 45.5426
rfemur -52.817 12.3681 17.671
rtibia 41.7231
rfoot -22.7833 -28.4195
rtoes 16.8281
lfemur -36.118 -7.07952 -23.2946
ltibia 37.49
lfoot -43.7451 28.3106
ltoes -0.355811
